<?xml version="1.0" encoding="UTF-8" standalone="no"?>
<svg
   xmlns:dc="http://purl.org/dc/elements/1.1/"
   xmlns:cc="http://creativecommons.org/ns#"
   xmlns:rdf="http://www.w3.org/1999/02/22-rdf-syntax-ns#"
   xmlns:svg="http://www.w3.org/2000/svg"
   xmlns="http://www.w3.org/2000/svg"
   xmlns:sodipodi="http://sodipodi.sourceforge.net/DTD/sodipodi-0.dtd"
   xmlns:inkscape="http://www.inkscape.org/namespaces/inkscape"
   version="1.1"
   id="Layer_3"
   x="0px"
   y="0px"
   viewBox="0 0 128 128"
   style="enable-background:new 0 0 128 128;"
   xml:space="preserve"
   sodipodi:docname="lightningEmpty.svg"
   inkscape:version="1.0.2 (e86c870879, 2021-01-15, custom)"><metadata
   id="metadata861"><rdf:RDF><cc:Work
       rdf:about=""><dc:format>image/svg+xml</dc:format><dc:type
         rdf:resource="http://purl.org/dc/dcmitype/StillImage" /><dc:title></dc:title></cc:Work></rdf:RDF></metadata><defs
   id="defs859" /><sodipodi:namedview
   pagecolor="#ffffff"
   bordercolor="#666666"
   borderopacity="1"
   objecttolerance="10"
   gridtolerance="10"
   guidetolerance="10"
   inkscape:pageopacity="0"
   inkscape:pageshadow="2"
   inkscape:window-width="1920"
   inkscape:window-height="1017"
   id="namedview857"
   showgrid="false"
   inkscape:zoom="4.5685728"
   inkscape:cx="14.688299"
   inkscape:cy="51.419028"
   inkscape:window-x="-8"
   inkscape:window-y="-8"
   inkscape:window-maximized="1"
   inkscape:current-layer="Layer_3"
   inkscape:document-rotation="0" />
<path
   id="path848"
   style="fill:#feb804"
   d="m 98.289062,3.1796875 c 1.330001,0 -32.779687,45.9399215 -33.679687,47.1699215 -0.89,1.22 -1.128984,3.26086 0.791016,3.38086 0.295977,0.01705 2.669081,0.01132 4.464843,0.01172 0.363867,-0.58292 28.789511,-46.1188628 29.445313,-47.2714849 0.66,-1.16 0.798513,-3.2910156 -1.021485,-3.2910156 z m 0,0 c -0.04614,0 -0.148012,0.050708 -0.283203,0.1289063 0.131728,-0.081653 0.228186,-0.1289063 0.283203,-0.1289063 z m -0.283203,0.1289063 c -0.0099,0.00617 -0.02088,0.012913 -0.03125,0.019531 0.0089,-0.00523 0.02273,-0.014603 0.03125,-0.019531 z m -0.03125,0.019531 C 94.070826,5.6312813 57.142527,36.943187 50.419922,42.25 c -6.98,5.51 -31.13086,26 -31.13086,26 L 48.494316,46.404472 c 0,0 45.08524,-40.2722709 49.480293,-43.076347 z M 19.289062,68.25 c 0,0 -2.148359,1.320703 -1.818359,2.970703 0.33,1.65 1.769688,1.71875 2.429688,1.71875 0.66,0 34.849843,-0.180234 36.839843,-0.240234 0.386326,-0.01095 0.689703,0.07386 0.939454,0.210937 0.227677,-0.355434 0.584481,-0.934562 0.740234,-1.169922 0.45,-0.68 1.90914,-4.390625 -1.13086,-4.390625 -3.039999,0 -38,0.900391 -38,0.900391 z m 38.390626,4.660156 c -0.430129,0.671486 -0.811896,1.254315 -1.400391,2.208985 -0.9,1.46 -23.939844,40.071479 -26.339844,44.021479 -2.405516,3.96042 -2.490934,4.78386 -2.404297,4.91993 0.265978,-1.22002 9.425782,-13.90039 9.425782,-13.90039 L 58.599609,76.140625 c 0,0 0.42713,-2.491118 -0.919921,-3.230469 z M 27.535156,124.06055 c -0.0039,0.0179 -0.02539,0.0574 -0.02539,0.0703 0,1.31 1.580781,1.96008 3.050781,1.08008 1.14,-0.68 74.839843,-63.131878 78.089843,-67.421878 0.88,-1.17 1.32922,-4.25 -2.30078,-4.25 -0.0299,0 -0.0937,0.01059 -0.12695,0.01172 8e-4,-6e-6 0.12695,0 0.12695,0 0,0 -27.890079,25.629297 -36.330079,33.279297 -8.44,7.65 -36.389531,32.429692 -38.269531,34.179692 -1.84,1.72 -3.509453,3.30007 -4.189453,3.08007 -0.0094,-0.003 -0.01731,-0.0166 -0.02539,-0.0293 z M 106.22266,53.550781 c -0.2105,0.0016 -26.60202,0.193595 -36.357426,0.191407 -0.0023,0.0037 -0.185546,0.296874 -0.185546,0.296874 l 8.836924,2.340264 c 0,-10e-7 23.696668,-2.692148 27.706048,-2.828545 z"
   sodipodi:nodetypes="ccccsccccccccsccccssccssccsccccccsccsccscccccccc" />



<path
   style="fill:none;fill-opacity:1;stroke:#ffc927;stroke-width:3.77953;stroke-linejoin:round;stroke-miterlimit:4;stroke-dasharray:none;stroke-opacity:1"
   d="m 64.644384,52.238348 c -0.89,1.22 -1.13,3.26 0.79,3.38 1.91,0.11 40.949996,-0.18 40.949996,-0.18 0,0 -27.889996,25.63 -36.329996,33.28 -8.44,7.65 -36.39,32.429992 -38.27,34.179992 -1.84,1.72 -3.51,3.3 -4.19,3.08 -0.11,-0.03 -0.25,-0.62 2.38,-4.95 2.4,-3.95 25.44,-42.559992 26.34,-44.019992 0.9,-1.46 1.69,-2.7 2.14,-3.38 0.45,-0.68 1.91,-4.39 -1.13,-4.39 -3.04,0 -38,0.9 -38,0.9 0,0 24.15,-20.49 31.13,-26 6.98,-5.51 46.54,-39.0700003 47.87,-39.0700003 1.33,0 -32.78,45.9400003 -33.68,47.1700003 z"
   id="path850" /></svg>
